<svg width="217" height="177" viewBox="0 0 217 177" fill="none" xmlns="http://www.w3.org/2000/svg">
<path d="M149.188 34.437C149.188 32.6004 149.859 31.0111 151.201 29.6689C152.543 28.3268 154.132 27.6558 155.969 27.6558C157.805 27.6558 159.395 28.3268 160.737 29.6689C162.079 31.0111 162.75 32.6004 162.75 34.437C162.75 36.2736 162.079 37.863 160.737 39.2051C159.395 40.5472 157.805 41.2183 155.969 41.2183C154.132 41.2183 152.543 40.5472 151.201 39.2051C149.859 37.863 149.188 36.2736 149.188 34.437ZM217 136.156V149.718H189.875V176.843H176.312V149.718H149.188V136.156H176.312V109.031H189.875V136.156H217ZM97.6924 102.25L135.625 140.076V149.718H0V0.530762H189.875V95.4683H176.312V14.0933H13.5625V58.7012L33.9062 38.4634L88.1562 92.7134L115.281 65.5884L162.75 112.951V122.593H153.108L115.281 84.6606L97.6924 102.25ZM33.9062 57.5356L13.5625 77.9854V136.156H112.42L33.9062 57.5356Z" fill="black" fill-opacity="0.6"/>
</svg>
