<svg width="25" height="24" viewBox="0 0 25 24" fill="none" xmlns="http://www.w3.org/2000/svg">
<g id="streamline:hotel-air-conditioner" clip-path="url(#clip0_687_1973)">
<g id="Group">
<path id="Vector" d="M21.7326 1.00024H2.87542C2.42076 1.00024 1.98473 1.18086 1.66324 1.50235C1.34174 1.82384 1.16113 2.25987 1.16113 2.71453V11.286C1.16113 11.7406 1.34174 12.1767 1.66324 12.4981C1.98473 12.8196 2.42076 13.0002 2.87542 13.0002H21.7326C22.1872 13.0002 22.6233 12.8196 22.9447 12.4981C23.2662 12.1767 23.4468 11.7406 23.4468 11.286V2.71453C23.4468 2.25987 23.2662 1.82384 22.9447 1.50235C22.6233 1.18086 22.1872 1.00024 21.7326 1.00024Z" stroke="#77D1F3" stroke-linecap="round" stroke-linejoin="round"/>
<path id="Vector_2" d="M19.1613 13.0003V9.57171C19.1613 9.11705 18.9807 8.68102 18.6592 8.35952C18.3377 8.03803 17.9016 7.85742 17.447 7.85742H7.16127C6.70662 7.85742 6.27058 8.03803 5.94909 8.35952C5.6276 8.68102 5.44699 9.11705 5.44699 9.57171V13.0003M4.58984 21.5717H4.76127C5.39779 21.5717 6.00824 21.3189 6.45833 20.8688C6.90842 20.4187 7.16127 19.8082 7.16127 19.1717V17.286M20.0184 21.5717H19.847C19.2105 21.5717 18.6 21.3189 18.1499 20.8688C17.6998 20.4187 17.447 19.8082 17.447 19.1717V17.286M12.3041 23.286V17.286" stroke="#77D1F3" stroke-linecap="round" stroke-linejoin="round"/>
</g>
</g>
<defs>
<clipPath id="clip0_687_1973">
<rect width="24" height="24" fill="white" transform="translate(0.303711)"/>
</clipPath>
</defs>
</svg>
