<svg width="25" height="24" viewBox="0 0 25 24" fill="none" xmlns="http://www.w3.org/2000/svg">
<g id="mdi:headphones-outline">
<path id="Vector" d="M5.30371 3C3.30371 3 2.30371 5 2.30371 6V11C2.30371 12 3.30371 14 5.30371 14C5.91371 14 6.62371 13.72 7.30371 13.27V20C7.30371 20.55 7.75371 21 8.30371 21H9.30371C9.85371 21 10.3037 20.55 10.3037 20V8C10.3037 6 7.30371 3 5.30371 3ZM8.30371 10.23L6.21371 11.6C5.70371 11.93 5.38371 12 5.30371 12C4.60371 12 4.30371 11.08 4.30371 11V6.03C4.30371 5.92 4.60371 5 5.30371 5C6.20371 5 8.30371 7.1 8.30371 8V10.23ZM16.8037 15C17.5037 15 18.1737 14.89 18.8037 14.68V20C18.8037 20.55 18.3537 21 17.8037 21H15.8037C15.2537 21 14.8037 20.55 14.8037 20V14.68C15.4337 14.89 16.1037 15 16.8037 15ZM16.8037 3C13.7637 3 11.3037 5.46 11.3037 8.5C11.3037 11.54 13.7637 14 16.8037 14C19.8437 14 22.3037 11.54 22.3037 8.5C22.3037 5.46 19.8437 3 16.8037 3ZM16.8037 12C14.8737 12 13.3037 10.43 13.3037 8.5C13.3037 6.57 14.8737 5 16.8037 5C18.7337 5 20.3037 6.57 20.3037 8.5C20.3037 10.43 18.7337 12 16.8037 12Z" fill="#77D1F3"/>
</g>
</svg>
