<svg width="25" height="24" viewBox="0 0 25 24" fill="none" xmlns="http://www.w3.org/2000/svg">
<g id="gg:apple-watch">
<path id="Vector" fill-rule="evenodd" clip-rule="evenodd" d="M16.8017 5.02991C16.8017 5.07791 16.7997 5.12591 16.7967 5.17291C17.3834 5.37887 17.8917 5.76198 18.2512 6.26931C18.6107 6.77663 18.8038 7.38311 18.8037 8.00491V9.00491H19.8037V13.0049H18.8037V16.0049C18.8037 16.6262 18.6108 17.2321 18.2516 17.739C17.8925 18.2459 17.3848 18.6289 16.7987 18.8349C16.8218 19.2425 16.7615 19.6506 16.6215 20.0341C16.4814 20.4176 16.2646 20.7684 15.9842 21.0652C15.7038 21.362 15.3658 21.5984 14.9909 21.7599C14.6159 21.9215 14.212 22.0049 13.8037 22.0049H9.80371C9.39544 22.0049 8.99148 21.9215 8.61655 21.7599C8.24162 21.5984 7.90361 21.362 7.62323 21.0652C7.34285 20.7684 7.12599 20.4176 6.98594 20.0341C6.84588 19.6506 6.78558 19.2425 6.80871 18.8349C6.2227 18.6287 5.71512 18.2458 5.35599 17.7389C4.99687 17.232 4.8039 16.6261 4.80371 16.0049V8.00491C4.8036 7.3839 4.99622 6.77816 5.35499 6.27126C5.71376 5.76436 6.22099 5.3813 6.80671 5.17491C6.78208 4.76523 6.84177 4.35484 6.9821 3.96915C7.12243 3.58346 7.34041 3.23066 7.62255 2.93259C7.90468 2.63452 8.24498 2.39751 8.62239 2.23622C8.9998 2.07493 9.40629 1.9928 9.81671 1.99491L13.8167 2.01491C14.6122 2.01915 15.3734 2.33914 15.933 2.90454C16.4926 3.46994 16.8057 4.23443 16.8017 5.02991ZM8.80171 5.00491H14.8017C14.7991 4.7423 14.6933 4.49125 14.5071 4.30601C14.3209 4.12078 14.0693 4.01621 13.8067 4.01491L9.80671 3.99491C9.67539 3.99425 9.54522 4.01947 9.42364 4.06912C9.30207 4.11876 9.19146 4.19187 9.09814 4.28427C9.00481 4.37666 8.9306 4.48653 8.87974 4.60761C8.82888 4.72868 8.80237 4.85859 8.80171 4.98991V5.00491ZM16.0087 7.02591L11.7887 7.00491H7.80371C7.53849 7.00491 7.28414 7.11027 7.0966 7.29781C6.90907 7.48534 6.80371 7.7397 6.80371 8.00491V16.0049C6.80371 16.27 6.90893 16.5242 7.09625 16.7117C7.28357 16.8992 7.53767 17.0046 7.80271 17.0049H15.8037C16.0688 17.0046 16.3229 16.8992 16.5102 16.7117C16.6975 16.5242 16.8027 16.27 16.8027 16.0049V8.00491C16.8028 7.77525 16.7238 7.55257 16.579 7.37429C16.4342 7.19601 16.2335 7.07299 16.0087 7.02591ZM8.80371 19.0049C8.80371 19.2701 8.90907 19.5245 9.0966 19.712C9.28414 19.8996 9.53849 20.0049 9.80371 20.0049H13.8037C14.0689 20.0049 14.3233 19.8996 14.5108 19.712C14.6984 19.5245 14.8037 19.2701 14.8037 19.0049H8.80371Z" fill="#77D1F3"/>
</g>
</svg>
