<svg width="33" height="34" viewBox="0 0 33 34" fill="none" xmlns="http://www.w3.org/2000/svg">
<circle cx="16.5" cy="17.5" r="16" stroke="#77D1F3"/>
<path d="M21.1663 23.0003C20.2413 23.0003 19.4997 23.742 19.4997 24.667C19.4997 25.109 19.6753 25.5329 19.9878 25.8455C20.3004 26.1581 20.7243 26.3337 21.1663 26.3337C21.6084 26.3337 22.0323 26.1581 22.3449 25.8455C22.6574 25.5329 22.833 25.109 22.833 24.667C22.833 24.225 22.6574 23.801 22.3449 23.4885C22.0323 23.1759 21.6084 23.0003 21.1663 23.0003ZM7.83301 9.66699V11.3337H9.49967L12.4997 17.6587L11.3663 19.7003C11.2413 19.9337 11.1663 20.2087 11.1663 20.5003C11.1663 20.9424 11.3419 21.3663 11.6545 21.6788C11.9671 21.9914 12.391 22.167 12.833 22.167H22.833V20.5003H13.183C13.1278 20.5003 13.0748 20.4784 13.0357 20.4393C12.9966 20.4002 12.9747 20.3472 12.9747 20.292C12.9747 20.2503 12.983 20.217 12.9997 20.192L13.7497 18.8337H19.958C20.583 18.8337 21.133 18.4837 21.4163 17.9753L24.3997 12.5837C24.458 12.4503 24.4997 12.3087 24.4997 12.167C24.4997 11.946 24.4119 11.734 24.2556 11.5777C24.0993 11.4215 23.8874 11.3337 23.6663 11.3337H11.3413L10.558 9.66699M12.833 23.0003C11.908 23.0003 11.1663 23.742 11.1663 24.667C11.1663 25.109 11.3419 25.5329 11.6545 25.8455C11.9671 26.1581 12.391 26.3337 12.833 26.3337C13.275 26.3337 13.699 26.1581 14.0115 25.8455C14.3241 25.5329 14.4997 25.109 14.4997 24.667C14.4997 24.225 14.3241 23.801 14.0115 23.4885C13.699 23.1759 13.275 23.0003 12.833 23.0003Z" fill="black"/>
<ellipse cx="27.5" cy="5" rx="4.5" ry="5" fill="black"/>
<path d="M26.7212 3.25V2.626H27.9692V7H27.2792V3.25H26.7212Z" fill="white"/>
</svg>
