<svg width="47" height="47" viewBox="0 0 47 47" fill="none" xmlns="http://www.w3.org/2000/svg">
<path d="M29.9626 37.1877C29.3809 35.6344 28.3368 34.2969 26.9711 33.3556C25.6054 32.4143 23.9838 31.9146 22.3252 31.9238H12.9253C11.8383 31.9003 10.7578 32.0963 9.74835 32.5001C8.73889 32.9038 7.82126 33.5071 7.05035 34.2737C6.2513 35.0817 5.63433 36.0512 5.24087 37.1172C3.68448 37.7197 2.34893 38.7826 1.41255 40.1641C0.476167 41.5455 -0.0164692 43.1798 0.000420177 44.8486C0.000420177 45.1603 0.124213 45.4591 0.344566 45.6795C0.564919 45.8998 0.863782 46.0236 1.17541 46.0236H34.0751C34.3867 46.0236 34.6856 45.8998 34.9059 45.6795C35.1263 45.4591 35.2501 45.1603 35.2501 44.8486C35.2425 43.1878 34.7337 41.5679 33.7903 40.201C32.8468 38.8342 31.5128 37.7839 29.9626 37.1877ZM12.9253 34.2737H22.3252C23.2379 34.2701 24.1387 34.4808 24.9551 34.889C25.7714 35.2971 26.4805 35.8913 27.0251 36.6237H8.22534C8.36079 36.3973 8.51822 36.1848 8.69533 35.9892C9.25107 35.4366 9.91137 35.0003 10.6376 34.7057C11.3639 34.4112 12.1416 34.2643 12.9253 34.2737ZM2.4679 43.6736C2.73877 42.3467 3.4598 41.154 4.50896 40.2975C5.55813 39.4411 6.87098 38.9734 8.22534 38.9737H27.0251C28.3996 38.946 29.7402 39.4011 30.8136 40.2599C31.8871 41.1186 32.6254 42.3267 32.9001 43.6736H2.4679Z" fill="#9098B1"/>
<path d="M45.2605 26.1895L38.9156 19.8211C38.2717 19.2382 37.4342 18.9154 36.5656 18.9154C35.6971 18.9154 34.8595 19.2382 34.2157 19.8211L31.0432 16.6486L32.8997 14.7921L33.2522 15.1211C33.3577 15.2335 33.4851 15.3231 33.6265 15.3844C33.768 15.4456 33.9205 15.4772 34.0747 15.4772C34.2288 15.4772 34.3813 15.4456 34.5228 15.3844C34.6642 15.3231 34.7917 15.2335 34.8971 15.1211L37.9521 12.0897C38.6065 11.4257 38.9734 10.5309 38.9734 9.5987C38.9734 8.66645 38.6065 7.77166 37.9521 7.10772L31.8657 1.02128C31.2017 0.366861 30.3069 0 29.3747 0C28.4425 0 27.5477 0.366861 26.8837 1.02128L23.8523 4.07625C23.7399 4.18174 23.6503 4.30915 23.589 4.45062C23.5278 4.59208 23.4962 4.74459 23.4962 4.89874C23.4962 5.05289 23.5278 5.20541 23.589 5.34687C23.6503 5.48834 23.7399 5.61575 23.8523 5.72124L24.1813 6.07373L18.7998 11.4552L18.4473 11.1262C18.3418 11.0138 18.2144 10.9242 18.0729 10.863C17.9315 10.8017 17.779 10.7701 17.6248 10.7701C17.4707 10.7701 17.3182 10.8017 17.1767 10.863C17.0352 10.9242 16.9078 11.0138 16.8023 11.1262L13.7474 14.1576C13.0929 14.8216 12.7261 15.7164 12.7261 16.6486C12.7261 17.5809 13.0929 18.4757 13.7474 19.1396L19.8338 25.226C20.5006 25.8749 21.3943 26.2379 22.3248 26.2379C23.2552 26.2379 24.1489 25.8749 24.8157 25.226L27.8472 22.1711C27.9596 22.0656 28.0492 21.9382 28.1104 21.7967C28.1717 21.6552 28.2033 21.5027 28.2033 21.3486C28.2033 21.1944 28.1717 21.0419 28.1104 20.9004C28.0492 20.759 27.9596 20.6316 27.8472 20.5261L27.5182 20.1736L29.3747 18.3171L32.4532 21.3721C31.8367 22.0225 31.493 22.8846 31.493 23.7808C31.493 24.677 31.8367 25.5391 32.4532 26.1895L38.8216 32.5345C39.3631 33.0882 40.0103 33.5274 40.7248 33.8261C41.4394 34.1249 42.2066 34.277 42.9811 34.2734H43.3806C43.8513 34.286 44.3198 34.2041 44.7584 34.0326C45.197 33.8611 45.5967 33.6034 45.9341 33.2748C46.2714 32.9463 46.5395 32.5534 46.7225 32.1195C46.9055 31.6856 46.9997 31.2194 46.9995 30.7485V30.349C47.0031 29.5745 46.8509 28.8073 46.5522 28.0928C46.2535 27.3782 45.8142 26.731 45.2605 26.1895ZM28.5522 2.68977C28.7718 2.47448 29.0671 2.35389 29.3747 2.35389C29.6823 2.35389 29.9776 2.47448 30.1972 2.68977L36.2836 8.77621C36.4989 8.99584 36.6195 9.29114 36.6195 9.5987C36.6195 9.90625 36.4989 10.2015 36.2836 10.4212L34.0747 12.6302L26.3432 4.89874L28.5522 2.68977ZM23.1473 23.5576C22.9276 23.7728 22.6323 23.8934 22.3248 23.8934C22.0172 23.8934 21.7219 23.7728 21.5023 23.5576L15.4158 17.4711C15.2006 17.2515 15.08 16.9562 15.08 16.6486C15.08 16.3411 15.2006 16.0458 15.4158 15.8261L17.6248 13.6172L25.3562 21.3486L23.1473 23.5576ZM20.4683 13.1237L25.8497 7.74222L31.2312 13.1237L25.8497 18.5051L20.4683 13.1237ZM44.6495 30.7485C44.6495 31.0601 44.5258 31.359 44.3054 31.5793C44.0851 31.7997 43.7862 31.9235 43.4746 31.9235H43.0751C42.1344 31.9187 41.2325 31.5478 40.5606 30.8895L34.2157 24.521C34.0004 24.3014 33.8798 24.0061 33.8798 23.6986C33.8798 23.391 34.0004 23.0957 34.2157 22.8761L35.6021 21.4896C35.7076 21.3772 35.835 21.2876 35.9765 21.2263C36.118 21.1651 36.2705 21.1335 36.4246 21.1335C36.5788 21.1335 36.7313 21.1651 36.8728 21.2263C37.0142 21.2876 37.1416 21.3772 37.2471 21.4896L43.6156 27.8345C44.2739 28.5064 44.6448 29.4083 44.6495 30.349V30.7485Z" fill="#9098B1"/>
</svg>
