<svg width="29" height="24" viewBox="0 0 29 24" fill="none" xmlns="http://www.w3.org/2000/svg">
<path d="M11.3491 21C11.7053 21 11.9941 20.7482 11.9941 20.4375C11.9941 20.1268 11.7053 19.875 11.3491 19.875C10.9929 19.875 10.7041 20.1268 10.7041 20.4375C10.7041 20.7482 10.9929 21 11.3491 21Z" fill="#9098B1" stroke="#9098B1" stroke-width="2" stroke-miterlimit="10" stroke-linecap="round" stroke-linejoin="round"/>
<path d="M20.3794 21C20.7356 21 21.0244 20.7482 21.0244 20.4375C21.0244 20.1268 20.7356 19.875 20.3794 19.875C20.0232 19.875 19.7344 20.1268 19.7344 20.4375C19.7344 20.7482 20.0232 21 20.3794 21Z" fill="#9098B1" stroke="#9098B1" stroke-width="2" stroke-miterlimit="10" stroke-linecap="round" stroke-linejoin="round"/>
<path d="M4.25391 3H6.83391L9.41391 16.5H22.3139L24.8939 6.375H8.12391" stroke="#9098B1" stroke-width="2" stroke-linecap="round" stroke-linejoin="round"/>
</svg>
