<svg width="18" height="18" viewBox="0 0 18 18" fill="none" xmlns="http://www.w3.org/2000/svg">
<circle opacity="0.2" cx="9" cy="9" r="9" fill="#77D1F3"/>
<path d="M6.20508 7.25391H7.20703C7.27148 6.41602 7.83398 5.89453 8.71875 5.89453C9.5918 5.89453 10.1543 6.42773 10.1543 7.1543C10.1543 7.78125 9.89062 8.15039 9.21094 8.56641C8.4082 9.04688 8.0332 9.57422 8.03906 10.3477V10.8867H9.06445V10.5059C9.06445 9.89062 9.27539 9.5625 10.0195 9.12305C10.7695 8.67188 11.2441 8.02148 11.2441 7.10156C11.2441 5.89453 10.2363 4.98047 8.75977 4.98047C7.11328 4.98047 6.26953 5.98828 6.20508 7.25391ZM8.55469 13.5586C8.93555 13.5586 9.22266 13.2656 9.22266 12.8906C9.22266 12.5098 8.93555 12.2227 8.55469 12.2227C8.17969 12.2227 7.88672 12.5098 7.88672 12.8906C7.88672 13.2656 8.17969 13.5586 8.55469 13.5586Z" fill="#77D1F3"/>
</svg>
