<svg width="104" height="29" viewBox="0 0 104 29" fill="none" xmlns="http://www.w3.org/2000/svg">
<g clip-path="url(#clip0_168_961)">
<path d="M23.7553 31.9249L29.9193 32.0526C27.7949 31.3183 25.7349 30.4244 23.7553 29.3709V31.9249ZM33.0414 31.0789V31.9249L29.9193 32.0526C35.7935 34.0479 41.1688 34.3193 45.16 33.2019C41.9574 33.2338 37.7891 32.7869 33.0414 31.0789ZM98.8488 12.6901C101.408 12.6901 103.5 10.631 103.5 8.077C103.5 5.52301 101.424 4.1662 98.8488 4.1662C96.2899 4.1662 94.1977 5.53897 94.1977 8.077C94.1977 10.615 96.2738 12.6901 98.8488 12.6901ZM94.1816 31.9249H103.5V14.2864H94.1816V31.9249ZM82.3205 31.9249H91.6388V0.750239L82.3205 5.10799V31.9249ZM77.3314 12.8657C74.4024 9.96057 69.2202 10.1362 69.2202 10.1362C69.2202 10.1362 64.0219 9.96057 61.1089 12.8657C58.1799 15.7709 58.4052 18.277 58.4052 21.262C58.4052 24.247 58.1799 26.7371 61.1089 29.6423C64.038 32.5474 69.2202 32.3718 69.2202 32.3718C69.2202 32.3718 74.4185 32.5474 77.3314 29.6423C80.2605 26.7371 80.0352 24.247 80.0352 21.262C80.0191 18.261 80.2444 15.7549 77.3314 12.8657ZM70.9261 24.3427C70.9261 24.9174 70.6364 26.338 69.2041 26.338C67.7718 26.338 67.4821 24.9174 67.4821 24.3427V17.8939C67.4821 16.5052 68.6569 16.154 69.2041 16.154C69.7513 16.154 70.9261 16.4892 70.9261 17.8939V24.3427ZM53.8346 12.8657C50.9055 9.96057 45.7233 10.1362 45.7233 10.1362C45.7233 10.1362 40.5411 9.96057 37.6121 12.8657C37.3063 13.169 37.0166 13.4883 36.7591 13.8235C30.6113 9.0986 25.0911 6.40094 20.3274 4.07043V0.766202L16.7063 2.45822C7.95129 -1.06948 2.38285 -0.446944 1.04707 2.47418C1.04707 2.47418 -2.96027 7.70986 10.993 20.1606V31.9249H20.3113V27.3596C19.2652 26.6892 18.2191 25.9709 17.1891 25.1887C14.8072 23.4009 12.7794 21.7409 11.0091 20.1765V15.2282C13.1174 17.5747 15.9177 20.2404 19.6032 23.2573L20.3274 23.8319V19.0751C20.3274 17.9737 20.601 16.17 22.0655 16.17C23.53 16.17 23.7714 17.2714 23.7714 18.5643V26.338C26.6683 28.2855 29.7744 29.8657 33.0575 31.0629V16.0742C33.0575 13.0892 30.901 10.1042 26.5235 10.1042C23.9807 10.0883 21.6149 11.4132 20.3274 13.6V4.9324C27.0707 8.26855 33.83 12.3549 36.405 14.2385C34.7635 16.569 34.9083 18.7239 34.9083 21.2141C34.9083 24.1991 34.683 26.6892 37.6121 29.5944C40.5411 32.4995 45.7233 32.324 45.7233 32.324C45.7233 32.324 50.9216 32.4995 53.8346 29.5944C56.7636 26.6892 56.5222 24.1991 56.5222 21.2141C56.5222 18.261 56.7636 15.7549 53.8346 12.8657ZM10.993 5.10799V15.2122C3.15535 6.51268 4.73254 3.08075 5.32801 2.58592C7.50066 0.766201 11.3632 1.30893 15.6924 2.92113L10.993 5.10799ZM47.4453 24.3427C47.4453 24.9174 47.1557 26.338 45.7233 26.338C44.291 26.338 44.0013 24.9174 44.0013 24.3427V17.8939C44.0013 16.5052 45.1761 16.154 45.7233 16.154C46.2705 16.154 47.4453 16.4892 47.4453 17.8939V24.3427Z" fill="#737373"/>
</g>
<defs>
<clipPath id="clip0_168_961">
<rect width="103" height="34" fill="white" transform="translate(0.5)"/>
</clipPath>
</defs>
</svg>
