<svg width="25" height="24" viewBox="0 0 25 24" fill="none" xmlns="http://www.w3.org/2000/svg">
<g id="wpf:iphone">
<path id="Vector" d="M7.68818 0C6.95373 0 6.24937 0.291757 5.73003 0.811089C5.2107 1.33042 4.91895 2.03479 4.91895 2.76923V21.2308C4.91895 21.9652 5.2107 22.6696 5.73003 23.1889C6.24937 23.7082 6.95373 24 7.68818 24H17.842C18.5765 24 19.2808 23.7082 19.8002 23.1889C20.3195 22.6696 20.6113 21.9652 20.6113 21.2308V2.76923C20.6113 2.03479 20.3195 1.33042 19.8002 0.811089C19.2808 0.291757 18.5765 0 17.842 0L7.68818 0ZM11.842 0.923077H13.6882C13.8106 0.923077 13.928 0.971703 14.0145 1.05826C14.1011 1.14481 14.1497 1.26221 14.1497 1.38462C14.1497 1.50702 14.1011 1.62442 14.0145 1.71097C13.928 1.79753 13.8106 1.84615 13.6882 1.84615H11.842C11.7196 1.84615 11.6022 1.79753 11.5157 1.71097C11.4291 1.62442 11.3805 1.50702 11.3805 1.38462C11.3805 1.26221 11.4291 1.14481 11.5157 1.05826C11.6022 0.971703 11.7196 0.923077 11.842 0.923077ZM7.22664 2.76923H18.3036C18.426 2.76923 18.5434 2.81786 18.6299 2.90441C18.7165 2.99097 18.7651 3.10836 18.7651 3.23077V18.9231C18.7651 19.0455 18.7165 19.1629 18.6299 19.2494C18.5434 19.336 18.426 19.3846 18.3036 19.3846H7.22664C7.10423 19.3846 6.98684 19.336 6.90028 19.2494C6.81373 19.1629 6.7651 19.0455 6.7651 18.9231V3.23077C6.7651 3.10836 6.81373 2.99097 6.90028 2.90441C6.98684 2.81786 7.10423 2.76923 7.22664 2.76923ZM14.0925 7.38462C13.7113 7.40954 13.2848 7.64492 13.0245 7.96154C12.7882 8.24769 12.5731 8.67138 12.6497 9.08677C13.066 9.09785 13.4971 8.85969 13.7463 8.53846C13.9789 8.23938 14.1571 7.81662 14.0925 7.38462ZM11.5245 9.02862C10.9799 9.02862 10.3919 9.38492 10.0245 9.95169C9.50571 10.7474 9.59064 12.2215 10.4288 13.5C10.7297 13.956 11.1451 14.4757 11.6694 14.4812C12.1337 14.4858 12.2482 14.196 12.8805 14.1923C13.5128 14.1886 13.6254 14.4858 14.0925 14.4812C14.6149 14.4757 15.0617 13.9274 15.3608 13.4714C15.5418 13.1981 15.6963 12.9082 15.8223 12.6055C14.6085 12.1468 14.3916 10.4068 15.5916 9.74954C15.226 9.29354 14.7211 9.02954 14.2365 9.02954C13.5949 9.02954 13.3263 9.34615 12.8805 9.34615C12.4208 9.34615 12.0802 9.02862 11.5245 9.02862ZM12.7651 20.5108C13.4168 20.5108 13.9476 21.0415 13.9476 21.6932C13.9476 22.3449 13.4168 22.8757 12.7651 22.8757C12.4516 22.8752 12.1512 22.7505 11.9295 22.5288C11.7079 22.3072 11.5831 22.0067 11.5826 21.6932C11.5826 21.0415 12.1134 20.5108 12.7651 20.5108Z" fill="#77D1F3"/>
</g>
</svg>
