<svg width="19" height="19" viewBox="0 0 19 19" fill="none" xmlns="http://www.w3.org/2000/svg">
<path d="M5.02123 3.90925C5.09484 3.98277 5.15323 4.07009 5.19307 4.16619C5.23291 4.2623 5.25341 4.36532 5.25341 4.46935C5.25341 4.57339 5.23291 4.67641 5.19307 4.77251C5.15323 4.86862 5.09484 4.95593 5.02123 5.02946C3.83328 6.2176 3.16592 7.82895 3.16592 9.5091C3.16592 11.1893 3.83328 12.8006 5.02123 13.9887C5.09684 14.0618 5.15715 14.1491 5.19864 14.2457C5.24013 14.3423 5.26197 14.4462 5.26289 14.5513C5.2638 14.6564 5.24377 14.7607 5.20396 14.858C5.16416 14.9553 5.10537 15.0436 5.03104 15.118C4.95671 15.1923 4.86832 15.2511 4.77103 15.2909C4.67373 15.3307 4.56949 15.3507 4.46437 15.3498C4.35925 15.3489 4.25537 15.3271 4.15878 15.2856C4.0622 15.2441 3.97484 15.1838 3.90181 15.1082C0.808771 12.0159 0.808771 7.0015 3.90181 3.90925C4.05027 3.76083 4.2516 3.67746 4.46152 3.67746C4.67144 3.67746 4.87277 3.76083 5.02123 3.90925ZM15.1007 3.90925C18.193 7.00229 18.193 12.0159 15.1007 15.1082C14.9523 15.2567 14.7509 15.3402 14.5409 15.3403C14.3309 15.3404 14.1295 15.257 13.9809 15.1086C13.8324 14.9601 13.7489 14.7587 13.7488 14.5487C13.7487 14.3387 13.8321 14.1373 13.9805 13.9887C15.1685 12.8006 15.8358 11.1893 15.8358 9.5091C15.8358 7.82895 15.1685 6.2176 13.9805 5.02946C13.832 4.88091 13.7485 4.67943 13.7485 4.46935C13.7485 4.25927 13.832 4.0578 13.9805 3.90925C14.1291 3.7607 14.3305 3.67725 14.5406 3.67725C14.7507 3.67725 14.9522 3.7607 15.1007 3.90925ZM7.3701 6.1845C7.51852 6.33296 7.60189 6.53429 7.60189 6.74421C7.60189 6.95413 7.51852 7.15546 7.3701 7.30392C7.0819 7.59209 6.85328 7.93421 6.6973 8.31075C6.54133 8.68728 6.46105 9.09085 6.46105 9.49842C6.46105 9.90598 6.54133 10.3095 6.6973 10.6861C6.85328 11.0626 7.0819 11.4047 7.3701 11.6929C7.44361 11.7665 7.5019 11.8538 7.54166 11.9499C7.58142 12.0459 7.60186 12.1489 7.60183 12.2529C7.60179 12.3569 7.58127 12.4598 7.54145 12.5559C7.50162 12.652 7.44326 12.7392 7.36971 12.8127C7.29615 12.8862 7.20884 12.9445 7.11276 12.9843C7.01668 13.024 6.9137 13.0445 6.80972 13.0445C6.70574 13.0444 6.60278 13.0239 6.50672 12.9841C6.41067 12.9442 6.3234 12.8859 6.2499 12.8123C5.37101 11.9334 4.87726 10.7414 4.87726 9.49842C4.87726 8.25546 5.37101 7.06341 6.2499 6.1845C6.32342 6.11089 6.41073 6.0525 6.50684 6.01266C6.60295 5.97282 6.70596 5.95231 6.81 5.95231C6.91404 5.95231 7.01705 5.97282 7.11316 6.01266C7.20927 6.0525 7.29658 6.11089 7.3701 6.1845ZM12.8785 6.1845C13.7574 7.06341 14.2512 8.25546 14.2512 9.49842C14.2512 10.7414 13.7574 11.9334 12.8785 12.8123C12.7292 12.9565 12.5292 13.0363 12.3217 13.0345C12.1141 13.0327 11.9155 12.9495 11.7687 12.8027C11.622 12.6559 11.5387 12.4573 11.5369 12.2498C11.5351 12.0422 11.6149 11.8422 11.7591 11.6929C12.0473 11.4047 12.2759 11.0626 12.4319 10.6861C12.5879 10.3095 12.6682 9.90598 12.6682 9.49842C12.6682 9.09085 12.5879 8.68728 12.4319 8.31075C12.2759 7.93421 12.0473 7.59209 11.7591 7.30392C11.6149 7.15461 11.5351 6.95463 11.5369 6.74706C11.5387 6.53948 11.622 6.34092 11.7687 6.19414C11.9155 6.04736 12.1141 5.9641 12.3217 5.9623C12.5292 5.96049 12.7292 6.04029 12.8785 6.1845ZM9.5646 8.37742C9.87955 8.37742 10.1816 8.50253 10.4043 8.72523C10.627 8.94793 10.7521 9.24997 10.7521 9.56492C10.7521 9.87986 10.627 10.1819 10.4043 10.4046C10.1816 10.6273 9.87955 10.7524 9.5646 10.7524C9.24966 10.7524 8.94761 10.6273 8.72492 10.4046C8.50222 10.1819 8.3771 9.87986 8.3771 9.56492C8.3771 9.24997 8.50222 8.94793 8.72492 8.72523C8.94761 8.50253 9.24966 8.37742 9.5646 8.37742Z" fill="#F44236"/>
</svg>
