<svg width="20" height="20" viewBox="0 0 20 20" fill="none" xmlns="http://www.w3.org/2000/svg">
<path d="M4.99178 4.10713C5.10883 4.22431 5.17457 4.38317 5.17457 4.54879C5.17457 4.71442 5.10883 4.87327 4.99178 4.99046C4.33401 5.64821 3.81224 6.42908 3.45625 7.28849C3.10027 8.14789 2.91705 9.069 2.91705 9.99921C2.91705 10.9294 3.10027 11.8505 3.45625 12.7099C3.81224 13.5693 4.33401 14.3502 4.99178 15.008C5.10558 15.1259 5.1685 15.2838 5.167 15.4477C5.1655 15.6115 5.0997 15.7683 4.98376 15.8841C4.86783 15.9999 4.71104 16.0656 4.54716 16.0669C4.38329 16.0683 4.22544 16.0052 4.10762 15.8913C0.853451 12.6371 0.853451 7.36129 4.10762 4.10713C4.22481 3.99008 4.38366 3.92434 4.54928 3.92434C4.71491 3.92434 4.8746 3.99008 4.99178 4.10713ZM15.8918 4.10713C19.146 7.36129 19.146 12.638 15.8918 15.8921C15.7733 16.0025 15.6166 16.0626 15.4547 16.0598C15.2928 16.0569 15.1383 15.9913 15.0238 15.8768C14.9093 15.7623 14.8437 15.6078 14.8408 15.4459C14.8379 15.284 14.8981 15.1273 15.0085 15.0088C15.6663 14.351 16.1882 13.5701 16.5443 12.7106C16.9003 11.8511 17.0836 10.9299 17.0836 9.99963C17.0836 9.06931 16.9003 8.14811 16.5443 7.28863C16.1882 6.42915 15.6663 5.64823 15.0085 4.99046C14.947 4.93324 14.8978 4.86424 14.8636 4.78758C14.8295 4.71091 14.8111 4.62815 14.8096 4.54423C14.8081 4.46031 14.8236 4.37695 14.855 4.29913C14.8865 4.22131 14.9332 4.15061 14.9926 4.09126C15.0519 4.03191 15.1226 3.98513 15.2005 3.95369C15.2783 3.92226 15.3616 3.90682 15.4456 3.9083C15.5295 3.90978 15.6122 3.92815 15.6889 3.96231C15.7656 3.99647 15.8346 4.04572 15.8918 4.10713ZM7.34845 6.46379C7.46549 6.58098 7.53123 6.73983 7.53123 6.90546C7.53123 7.07109 7.46549 7.22994 7.34845 7.34713C7.0001 7.69536 6.72377 8.10881 6.53524 8.56386C6.34671 9.01892 6.24967 9.50665 6.24967 9.99921C6.24967 10.4918 6.34671 10.9795 6.53524 11.4346C6.72377 11.8896 7.0001 12.3031 7.34845 12.6513C7.45885 12.7698 7.51895 12.9265 7.5161 13.0884C7.51324 13.2503 7.44765 13.4048 7.33314 13.5193C7.21862 13.6338 7.06414 13.6994 6.90222 13.7023C6.7403 13.7051 6.5836 13.645 6.46512 13.5346C5.52751 12.597 5.00077 11.3252 5.00077 9.99921C5.00077 8.67319 5.52751 7.40147 6.46512 6.46379C6.58231 6.34675 6.74116 6.28101 6.90678 6.28101C7.07241 6.28101 7.23126 6.34675 7.34845 6.46379ZM13.536 6.46379C14.4736 7.40147 15.0003 8.67319 15.0003 9.99921C15.0003 11.3252 14.4736 12.597 13.536 13.5346C13.4783 13.5943 13.4094 13.642 13.3331 13.6748C13.2569 13.7076 13.1749 13.7249 13.0919 13.7256C13.0089 13.7264 12.9266 13.7106 12.8498 13.6792C12.773 13.6478 12.7032 13.6014 12.6445 13.5428C12.5858 13.4841 12.5393 13.4144 12.5078 13.3376C12.4764 13.2608 12.4605 13.1785 12.4612 13.0955C12.4619 13.0125 12.4791 12.9305 12.5118 12.8542C12.5445 12.778 12.5921 12.709 12.6518 12.6513C13 12.3031 13.2762 11.8897 13.4647 11.4347C13.6532 10.9797 13.7501 10.4921 13.7501 9.99963C13.7501 9.50717 13.6532 9.01953 13.4647 8.56455C13.2762 8.10958 13 7.69618 12.6518 7.34796C12.5414 7.22948 12.4813 7.07278 12.4841 6.91086C12.487 6.74894 12.5526 6.59445 12.6671 6.47994C12.7816 6.36543 12.9361 6.29984 13.098 6.29698C13.2599 6.29412 13.4166 6.35423 13.5351 6.46463M10.0001 8.74963C10.3316 8.74963 10.6496 8.88132 10.884 9.11574C11.1184 9.35016 11.2501 9.66811 11.2501 9.99963C11.2501 10.3311 11.1184 10.6491 10.884 10.8835C10.6496 11.1179 10.3316 11.2496 10.0001 11.2496C9.6686 11.2496 9.35065 11.1179 9.11623 10.8835C8.88181 10.6491 8.75012 10.3311 8.75012 9.99963C8.75012 9.66811 8.88181 9.35016 9.11623 9.11574C9.35065 8.88132 9.6686 8.74963 10.0001 8.74963Z" fill="black"/>
</svg>
