<svg width="16" height="21" viewBox="0 0 16 21" fill="none" xmlns="http://www.w3.org/2000/svg">
<path fill-rule="evenodd" clip-rule="evenodd" d="M0.798384 19.6196C2.78715 20.4844 5.28537 21 8 21C10.7146 21 13.2129 20.4844 15.2016 19.6196C15.6839 19.4099 16 18.9342 16 18.4027V10.4637C16 9.93226 15.6839 9.45657 15.2016 9.24686C14.8698 9.10258 14.519 8.97197 14.1602 8.8479V6.23739C14.1602 2.79809 11.3967 0 7.99998 0C4.60324 0 1.83976 2.79809 1.83976 6.23739V8.84792C1.48096 8.97199 1.1302 9.10258 0.798384 9.24686C0.316075 9.45657 0 9.93226 0 10.4637V18.4027C0 18.9342 0.316075 19.4099 0.798384 19.6196ZM9.22843 14.6524V16.6142C9.22843 17.3011 8.67845 17.858 8 17.858C7.32155 17.858 6.77155 17.3011 6.77155 16.6142V14.6524C6.29676 14.2801 5.98983 13.6989 5.98983 13.0438C5.98983 11.9197 6.88981 11.0085 8 11.0085C9.11019 11.0085 10.0102 11.9197 10.0102 13.0438C10.0102 13.6989 9.70324 14.2801 9.22843 14.6524ZM7.99998 2.63689C6.03915 2.63689 4.44403 4.25212 4.44403 6.23739V8.17856C5.56666 7.97891 6.75888 7.86646 8 7.86646C9.2411 7.86646 10.4333 7.97891 11.5559 8.17856V6.23739C11.5559 4.25212 9.96082 2.63689 7.99998 2.63689Z" fill="black"/>
</svg>
