<svg width="20" height="20" viewBox="0 0 20 20" fill="none" xmlns="http://www.w3.org/2000/svg">
<path d="M10.0003 13.3336C11.8387 13.3336 13.3337 11.8386 13.3337 10.0002V5.00025C13.3337 3.15275 11.8462 1.64941 10.0178 1.64941C9.95917 1.64977 9.90074 1.65676 9.84366 1.67025C8.98803 1.71173 8.1811 2.08054 7.58981 2.70037C6.99852 3.3202 6.66813 4.14362 6.66699 5.00025V10.0002C6.66699 11.8386 8.16199 13.3336 10.0003 13.3336Z" fill="black"/>
<path d="M9.16634 16.6092V18.3333H10.833V16.6092C14.1155 16.1967 16.6663 13.3942 16.6663 10H14.9997C14.9997 12.7575 12.7572 15 9.99967 15C7.24217 15 4.99967 12.7575 4.99967 10H3.33301C3.33301 13.3933 5.88384 16.1967 9.16634 16.6092Z" fill="black"/>
</svg>
