<svg width="25" height="24" viewBox="0 0 25 24" fill="none" xmlns="http://www.w3.org/2000/svg">
<path d="M9.82204 6.8835L9.82459 6.8845C9.87756 6.663 10.0701 6.5 10.311 6.5H17.1727C17.1814 6.5 17.1901 6.4965 17.1987 6.497C17.0525 4.1075 15.0106 3 13.2091 3H6.34737C6.10595 3 5.91342 3.1675 5.86096 3.3885L5.85841 3.3875L2.85895 16.9065L2.86557 16.907C2.85844 16.939 2.8457 16.9695 2.8457 17.004C2.8457 17.2805 3.07338 17.4995 3.35504 17.4995H7.46587L9.82204 6.8835Z" fill="#1565C0"/>
<path d="M17.2014 6.49683C17.2284 6.93483 17.1988 7.41133 17.0847 7.93783C16.4323 10.9353 14.0736 12.4953 11.1586 12.4953C11.1586 12.4953 9.39125 12.4953 8.96189 12.4953C8.69652 12.4953 8.57123 12.6483 8.51367 12.7653L7.62743 16.7898L7.47209 17.5043H7.46903L6.82574 20.4023L6.83236 20.4028C6.82523 20.4348 6.8125 20.4653 6.8125 20.4998C6.8125 20.7763 7.04017 20.9998 7.32183 20.9998H11.0568L11.0634 20.9948C11.3038 20.9913 11.4948 20.8228 11.5447 20.6008L11.5539 20.5933L12.4768 16.3853C12.4768 16.3853 12.541 15.9838 12.9708 15.9838C13.4007 15.9838 15.0988 15.9838 15.0988 15.9838C18.0138 15.9838 20.3964 14.4308 21.0494 11.4328C21.7838 8.05283 19.3278 6.50933 17.2014 6.49683Z" fill="#039BE5"/>
<path d="M10.3122 6.49975C10.0708 6.49975 9.87826 6.66275 9.8258 6.88425L9.82325 6.88325L8.51172 12.7658C8.56927 12.6488 8.69457 12.4958 8.95993 12.4958C9.38981 12.4958 11.117 12.4958 11.117 12.4958C14.0319 12.4958 16.4303 10.9358 17.0828 7.93825C17.1974 7.41175 17.2264 6.93525 17.1994 6.49725C17.1913 6.49625 17.1821 6.49975 17.174 6.49975H10.3122Z" fill="#283593"/>
</svg>
