<svg width="16" height="18" viewBox="0 0 16 18" fill="none" xmlns="http://www.w3.org/2000/svg">
<path fill-rule="evenodd" clip-rule="evenodd" d="M2.86677 7.44534C4.35906 11.1813 7.01053 14.142 10.3018 15.7474L10.3118 15.7522L10.9484 16.078C11.3417 16.2797 11.7833 16.3196 12.1991 16.1909C12.6149 16.0623 12.9796 15.773 13.2318 15.3717L14.2934 13.6822C14.3246 13.6324 14.3381 13.5708 14.3309 13.51C14.3238 13.4492 14.2967 13.3939 14.2551 13.3554L12.4018 11.6352C12.3799 11.6149 12.3547 11.5999 12.3276 11.5911C12.3006 11.5823 12.2723 11.5799 12.2444 11.584C12.2166 11.5881 12.1897 11.5987 12.1655 11.6151C12.1412 11.6314 12.1201 11.6533 12.1034 11.6793L11.3818 12.7986C11.2967 12.9307 11.1749 13.0252 11.0367 13.0665C10.8984 13.1079 10.7519 13.0935 10.6218 13.0257C8.15598 11.7411 6.18047 9.46929 5.06344 6.63363C5.00453 6.48394 4.99199 6.31554 5.02793 6.15651C5.06387 5.99748 5.1461 5.85741 5.26094 5.75963L6.23344 4.92876C6.25603 4.90955 6.27502 4.88529 6.28925 4.85742C6.30348 4.82956 6.31266 4.79867 6.31624 4.76662C6.31983 4.73457 6.31773 4.70202 6.31009 4.67092C6.30245 4.63982 6.28941 4.61083 6.27177 4.58568L4.77677 2.45434C4.74332 2.40655 4.6952 2.37534 4.64233 2.36714C4.58946 2.35893 4.53587 2.37437 4.4926 2.41026L3.0151 3.63693C2.66377 3.92836 2.41102 4.35071 2.29982 4.83219C2.18862 5.31367 2.22582 5.82458 2.4051 6.27809L2.86677 7.44438V7.44534ZM9.80844 17.068C6.23269 15.3219 3.35227 12.1041 1.73094 8.0443L1.72927 8.04238L1.2676 6.87322C0.968787 6.11751 0.906695 5.26614 1.09188 4.46375C1.27706 3.66136 1.69809 2.95744 2.28344 2.47159L3.76094 1.24493C4.06354 0.993767 4.43836 0.885575 4.80824 0.942622C5.17812 0.999669 5.5149 1.21761 5.74927 1.55159L7.2451 3.68388C7.36855 3.85981 7.45979 4.06262 7.51335 4.28012C7.5669 4.49762 7.58167 4.72533 7.55676 4.94957C7.53185 5.1738 7.46778 5.38993 7.3684 5.58497C7.26902 5.78 7.13637 5.94992 6.97844 6.08451L6.4201 6.55984C7.36409 8.66467 8.85482 10.379 10.6851 11.4646L11.0993 10.8225C11.2163 10.641 11.364 10.4886 11.5335 10.3744C11.7031 10.2602 11.8909 10.1866 12.0858 10.1579C12.2807 10.1293 12.4786 10.1462 12.6676 10.2077C12.8567 10.2692 13.033 10.374 13.1859 10.5158L15.0401 12.236C15.3308 12.5056 15.5204 12.8931 15.57 13.3187C15.6196 13.7443 15.5254 14.1755 15.3068 14.5236L14.2451 16.2141C13.8249 16.8829 13.2173 17.3651 12.5244 17.5796C11.8315 17.794 11.0955 17.7278 10.4401 17.3919L9.80844 17.068Z" fill="#9098B1"/>
</svg>
