<svg width="16" height="16" viewBox="0 0 16 16" fill="none" xmlns="http://www.w3.org/2000/svg">
<path d="M14.3996 3.68V13.6C14.3996 15.12 13.9996 16 12.4796 16H7.59961C6.87961 16 6.15961 15.68 5.67961 15.2L1.99961 11.2L1.59961 10.4C1.59961 9.6 1.99961 9.6 1.99961 9.6C2.23961 9.6 2.47961 9.6 2.79961 9.76L5.59961 11.2V2.64C5.59961 2.08 5.83961 1.6 6.39961 1.6C6.87961 1.6 7.19961 2.16 7.19961 2.72V7.2H7.99961V0.96C7.99961 0.48 8.23961 0 8.79961 0C9.35961 0 9.59961 0.48 9.59961 1.04V7.2H10.3996V1.6C10.3996 1.04 10.6396 0.56 11.1996 0.56C11.7596 0.56 11.9996 1.04 11.9996 1.6V7.2H12.7996V3.68C12.7996 3.12 13.0396 2.64 13.5996 2.64C14.1596 2.64 14.3996 3.12 14.3996 3.68Z" fill="black"/>
</svg>
