<svg width="25" height="24" viewBox="0 0 25 24" fill="none" xmlns="http://www.w3.org/2000/svg">
<g id="streamline:refrigerator">
<path id="Vector" d="M4.58984 10.2857H20.0184M8.01842 5.14289V6.00003M7.16127 21.4286V23.1429M17.447 21.4286V23.1429M18.3041 0.857178H6.30413C5.84947 0.857178 5.41344 1.03779 5.09195 1.35928C4.77046 1.68077 4.58984 2.11681 4.58984 2.57146V19.7143C4.58984 20.169 4.77046 20.605 5.09195 20.9265C5.41344 21.248 5.84947 21.4286 6.30413 21.4286H18.3041C18.7588 21.4286 19.1948 21.248 19.5163 20.9265C19.8378 20.605 20.0184 20.169 20.0184 19.7143V2.57146C20.0184 2.11681 19.8378 1.68077 19.5163 1.35928C19.1948 1.03779 18.7588 0.857178 18.3041 0.857178Z" stroke="#77D1F3" stroke-linecap="round" stroke-linejoin="round"/>
</g>
</svg>
