<svg width="110" height="110" viewBox="0 0 110 110" fill="none" xmlns="http://www.w3.org/2000/svg">
<g opacity="0.5">
<circle cx="54.8039" cy="54.804" r="45.8732" transform="rotate(-12.6472 54.8039 54.804)" fill="white"/>
<path d="M86.6202 47.6645C88.0323 53.9574 87.5466 60.5277 85.2245 66.5446C82.9025 72.5615 78.8483 77.7546 73.5748 81.4674C68.3013 85.1802 62.0453 87.2458 55.5978 87.4031C49.1504 87.5603 42.8011 85.8021 37.3528 82.3509C31.9046 78.8996 27.6021 73.9103 24.9895 68.0138C22.3769 62.1173 21.5714 55.5784 22.675 49.2242C23.7786 42.8699 26.7417 36.9856 31.1896 32.3154C35.6374 27.6451 41.3703 24.3987 47.6632 22.9866L54.8027 54.8041L86.6202 47.6645Z" fill="black"/>
<path d="M47.2253 24.013C54.2917 21.499 67.5182 22.1094 76.8741 31.0384" stroke="black" stroke-width="2"/>
</g>
</svg>
