<svg width="13" height="13" viewBox="0 0 13 13" fill="none" xmlns="http://www.w3.org/2000/svg">
<path d="M12.9656 4.66701C12.9248 4.54669 12.8496 4.44096 12.7493 4.36289C12.6491 4.28481 12.5281 4.23781 12.4014 4.22767L8.69577 3.93326L7.09221 0.384078C7.04114 0.269766 6.95807 0.172675 6.85304 0.104523C6.748 0.03637 6.62548 6.88122e-05 6.50027 9.77331e-08C6.37505 -6.86168e-05 6.25249 0.036098 6.14738 0.104135C6.04227 0.172173 5.9591 0.269172 5.9079 0.383428L4.30434 3.93326L0.598671 4.22767C0.474166 4.23753 0.355139 4.28305 0.255829 4.35878C0.15652 4.4345 0.081133 4.53724 0.0386878 4.65468C-0.00375727 4.77213 -0.0114634 4.89931 0.0164914 5.02102C0.0444462 5.14273 0.106878 5.25381 0.196318 5.34097L2.93478 8.01017L1.96628 12.2034C1.93687 12.3303 1.9463 12.4632 1.99333 12.5847C2.04037 12.7062 2.12284 12.8108 2.23005 12.8848C2.33726 12.9589 2.46426 12.999 2.59456 13C2.72486 13.001 2.85246 12.9628 2.96078 12.8904L6.50006 10.5312L10.0393 12.8904C10.15 12.9639 10.2806 13.0017 10.4135 12.9988C10.5464 12.9959 10.6751 12.9524 10.7825 12.8741C10.8899 12.7958 10.9708 12.6865 11.0142 12.5609C11.0576 12.4353 11.0615 12.2994 11.0254 12.1716L9.83652 8.01212L12.7849 5.35917C12.978 5.18499 13.0488 4.91333 12.9656 4.66701Z" fill="#F3CD03"/>
</svg>
