<svg width="25" height="24" viewBox="0 0 25 24" fill="none" xmlns="http://www.w3.org/2000/svg">
<g id="icon-park:tv" clip-path="url(#clip0_687_1953)">
<g id="Group">
<path id="Vector" d="M20.8037 7H3.80371C3.25143 7 2.80371 7.44772 2.80371 8V20C2.80371 20.5523 3.25143 21 3.80371 21H20.8037C21.356 21 21.8037 20.5523 21.8037 20V8C21.8037 7.44772 21.356 7 20.8037 7Z" stroke="#77D1F3" stroke-width="4"/>
<path id="Vector_2" d="M12.3037 7L19.3037 3" stroke="#77D1F3" stroke-width="4" stroke-linecap="round" stroke-linejoin="round"/>
<path id="Vector_3" d="M11.8037 7L5.30371 3" stroke="#77D1F3" stroke-width="4" stroke-linecap="round" stroke-linejoin="round"/>
<path id="Vector_4" d="M17.8037 10V13" stroke="#77D1F3" stroke-width="4" stroke-linecap="round" stroke-linejoin="round"/>
<path id="Vector_5" d="M18.8037 17C18.8037 16.4477 18.356 16 17.8037 16C17.2514 16 16.8037 16.4477 16.8037 17C16.8037 17.5523 17.2514 18 17.8037 18C18.356 18 18.8037 17.5523 18.8037 17Z" fill="#77D1F3"/>
</g>
</g>
<defs>
<clipPath id="clip0_687_1953">
<rect width="24" height="24" fill="white" transform="translate(0.303711)"/>
</clipPath>
</defs>
</svg>
