<svg width="20" height="20" viewBox="0 0 20 20" fill="none" xmlns="http://www.w3.org/2000/svg">
<g clip-path="url(#clip0_2475_2125)">
<path d="M19 0L13.75 5.25V3.75C13.75 1.625 12.125 0 10 0C7.875 0 6.25 1.625 6.25 3.75V8.75C6.25 9.875 6.75 10.875 7.5 11.5L6.5 12.5C5.625 11.75 5 10.625 5 9.375V6.25C4.25 6.25 3.75 6.75 3.75 7.5V9.375C3.75 11 4.5 12.375 5.625 13.375L0 19.125V20H0.875L20 0.75V0H19ZM15.625 6.375L15 7V9.375C15 11.75 12.75 13.75 10.25 13.75H9.75C9.375 13.75 9 13.625 8.625 13.625L7.5 14.5C7.875 14.625 8.25 14.75 8.75 14.875V17.5C5 17.5 5.625 20 5.625 20H14.375C14.375 20 15 17.5 11.25 17.5V14.875C14 14.375 16.25 12.125 16.25 9.375V7.5C16.25 7 16 6.625 15.625 6.375Z" fill="black"/>
<path d="M13.75 8.75V8.25L9.625 12.5H10C12.125 12.5 13.75 10.75 13.75 8.75Z" fill="black"/>
</g>
<defs>
<clipPath id="clip0_2475_2125">
<rect width="20" height="20" fill="white"/>
</clipPath>
</defs>
</svg>
