<svg width="25" height="24" viewBox="0 0 25 24" fill="none" xmlns="http://www.w3.org/2000/svg">
<g id="game-icons:washing-machine">
<path id="Vector" d="M3.72559 1.92188V5.57812H8.88184V1.92188H3.72559ZM9.72559 1.92188V5.57812H20.8818V1.92188H9.72559ZM19.0537 3C19.2526 3 19.4434 3.07902 19.584 3.21967C19.7247 3.36032 19.8037 3.55109 19.8037 3.75C19.8037 3.94891 19.7247 4.13968 19.584 4.28033C19.4434 4.42098 19.2526 4.5 19.0537 4.5C18.8548 4.5 18.664 4.42098 18.5234 4.28033C18.3827 4.13968 18.3037 3.94891 18.3037 3.75C18.3037 3.55109 18.3827 3.36032 18.5234 3.21967C18.664 3.07902 18.8548 3 19.0537 3ZM10.8037 3.32812H13.0537V4.17188H10.8037V3.32812ZM14.5537 3.32812H16.8037V4.17188H14.5537V3.32812ZM3.72559 6.42188V22.8281H20.8818V6.42188H3.72559ZM12.3037 7.82812C16.1803 7.82812 19.335 10.9828 19.335 14.8594C19.335 18.7359 16.1803 21.8906 12.3037 21.8906C8.42715 21.8906 5.27246 18.7359 5.27246 14.8594C5.27246 10.9828 8.42715 7.82812 12.3037 7.82812ZM12.3037 8.67188C8.88184 8.67188 6.11621 11.4375 6.11621 14.8594C6.11621 18.2812 8.88184 21.0469 12.3037 21.0469C14.5771 21.0469 16.56 19.8281 17.6334 18.0047L16.2225 16.875C15.8519 17.595 15.2902 18.1991 14.5989 18.6208C13.9076 19.0425 13.1135 19.2656 12.3037 19.2656C11.1352 19.2654 10.0146 18.8011 9.1883 17.9748C8.36202 17.1485 7.89771 16.0279 7.89746 14.8594C7.89771 13.6908 8.36202 12.5702 9.1883 11.744C10.0146 10.9177 11.1352 10.4534 12.3037 10.4531C13.1517 10.4529 13.9818 10.6974 14.6943 11.1572C15.4069 11.6169 15.9717 12.2725 16.3209 13.0453L17.7459 11.9062C16.7006 9.97969 14.6568 8.67188 12.3037 8.67188ZM11.9803 11.5781C9.63184 11.6297 8.37559 13.9688 9.07402 15.9797C9.04121 14.2078 10.485 12.3234 11.9803 11.5781ZM18.1021 12.6984L16.6021 13.8984C16.6732 14.2138 16.7094 14.5361 16.71 14.8594C16.7103 15.2634 16.6551 15.6657 16.5459 16.0547L18.0178 17.2359C18.3225 16.5047 18.4912 15.7031 18.4912 14.8594C18.4912 14.1 18.3553 13.3687 18.1021 12.6984Z" fill="#77D1F3"/>
</g>
</svg>
